# xmcd
#
# Track frame offsets: 
#        150
#        18617
#        34602
#        54262
#        72262
#        91552
#        112245
#        133060
#        153600
#        174425
#
# Disc length: 2833 seconds
#
# Revision: 2
# Processed by: cddbd v1.5.2PL0 Copyright (c) Steve Scherf et al.
# Submitted via: ExactAudioCopy v1.0b3
#
DISCID=7f0b0f0a
DTITLE=Trina and Tamara - Trina and Tamara
DYEAR=1999
DGENRE=Soul
TTITLE0=What'd You Come Her For ?
TTITLE1=Nothin' New
TTITLE2=Joanne
TTITLE3=Sister
TTITLE4=Let's Go
TTITLE5="29"
TTITLE6=Makin' Love
TTITLE7=Settle For My Love
TTITLE8=How Could This Be The End
TTITLE9=Blue
EXTD=
EXTT0=
EXTT1=
EXTT2=
EXTT3=
EXTT4=
EXTT5=
EXTT6=
EXTT7=
EXTT8=
EXTT9=
PLAYORDER=
